<?xml version="1.0" encoding="UTF-8"?>
<svg xmlns="http://www.w3.org/2000/svg" width="1200" height="360" viewBox="0 0 1200 360" role="img" aria-labelledby="title desc">
  <title id="title">Bludit Todos plugin header</title>
  <desc id="desc">Header graphic for the Bludit Todos plugin showing stacked checklist cards on a gradient background.</desc>
  <defs>
    <linearGradient id="bg" x1="0" y1="0" x2="1" y2="1">
      <stop offset="0" stop-color="#0f172a"/>
      <stop offset="1" stop-color="#0b1221"/>
    </linearGradient>
    <linearGradient id="cardGrad" x1="0" y1="0" x2="1" y2="1">
      <stop offset="0" stop-color="#0b182d"/>
      <stop offset="1" stop-color="#12243d"/>
    </linearGradient>
    <linearGradient id="accentLine" x1="0" y1="0" x2="1" y2="0">
      <stop offset="0" stop-color="#38bdf8"/>
      <stop offset="1" stop-color="#22c55e"/>
    </linearGradient>
    <filter id="shadow" x="-8%" y="-10%" width="116%" height="130%" color-interpolation-filters="sRGB">
      <feOffset in="SourceAlpha" dy="10" result="offset"/>
      <feGaussianBlur in="offset" stdDeviation="12" result="blur"/>
      <feColorMatrix in="blur" type="matrix" values="0 0 0 0 0  0 0 0 0 0  0 0 0 0 0  0 0 0 0.32 0" result="shadow"/>
      <feBlend in="SourceGraphic" in2="shadow" mode="normal"/>
    </filter>
  </defs>
  <rect width="1200" height="360" fill="url(#bg)" rx="24"/>
  <g opacity="0.25">
    <circle cx="220" cy="90" r="120" fill="#38bdf8"/>
    <circle cx="1040" cy="70" r="140" fill="#22c55e"/>
    <circle cx="840" cy="310" r="150" fill="#0ea5e9"/>
  </g>
  <g transform="translate(92 86)" fill="#e2e8f0" font-family="Poppins, 'Segoe UI', sans-serif">
    <text x="0" y="0" font-size="14" letter-spacing="2" fill="#7dd3fc">BLUDIT PLUGIN</text>
    <text x="0" y="46" font-size="44" font-weight="700">Todos, direkt im Dashboard</text>
    <text x="0" y="82" font-size="20" fill="#cbd5e1">Schnelle Checklisten f&#252;r Redakteure und Site-Owner.</text>
    <text x="0" y="112" font-size="16" fill="#94a3b8">Mehrere Listen, Drag-and-drop, Inline-Checkboxen und Auto-Save.</text>
    <rect x="0" y="136" width="180" height="4" rx="2" fill="url(#accentLine)"/>
  </g>
  <g transform="translate(720 58)">
    <g filter="url(#shadow)">
      <rect x="0" y="0" width="380" height="240" rx="18" fill="#0b1325" stroke="#1f2937" stroke-width="2"/>
      <rect x="22" y="26" width="88" height="10" rx="5" fill="#38bdf8" opacity="0.7"/>
      <rect x="120" y="26" width="52" height="10" rx="5" fill="#fbbf24" opacity="0.65"/>
      <rect x="24" y="68" width="332" height="44" rx="12" fill="url(#cardGrad)" stroke="#1f2937" stroke-width="1.5"/>
      <rect x="24" y="122" width="332" height="44" rx="12" fill="url(#cardGrad)" stroke="#1f2937" stroke-width="1.5"/>
      <rect x="24" y="176" width="332" height="44" rx="12" fill="url(#cardGrad)" stroke="#1f2937" stroke-width="1.5"/>
      <g transform="translate(38 86)" fill="none" stroke="#22c55e" stroke-width="3.2" stroke-linecap="round" stroke-linejoin="round">
        <rect x="-8" y="-12" width="28" height="28" rx="8" fill="#0f172a" stroke="#1f2937" stroke-width="1.2"/>
        <path d="M1 4 l6 6 12 -12"/>
      </g>
      <g transform="translate(38 140)" fill="none" stroke="#38bdf8" stroke-width="3.2" stroke-linecap="round" stroke-linejoin="round">
        <rect x="-8" y="-12" width="28" height="28" rx="8" fill="#0f172a" stroke="#1f2937" stroke-width="1.2"/>
        <path d="M1 4 l6 6 12 -12"/>
      </g>
      <g transform="translate(38 194)" fill="none" stroke="#fbbf24" stroke-width="3.2" stroke-linecap="round" stroke-linejoin="round">
        <rect x="-8" y="-12" width="28" height="28" rx="8" fill="#0f172a" stroke="#1f2937" stroke-width="1.2"/>
        <path d="M1 4 l6 6 12 -12"/>
      </g>
      <g fill="#e2e8f0" font-family="Poppins, 'Segoe UI', sans-serif" font-size="18">
        <text x="78" y="91">Release Notes erstellen</text>
        <text x="78" y="145">Links pr&#252;fen &amp; abhaken</text>
        <text x="78" y="199">SEO-Check f&#252;r neue Seiten</text>
      </g>
    </g>
    <g filter="url(#shadow)" transform="translate(80 34) scale(0.88)">
      <rect x="0" y="0" width="300" height="180" rx="16" fill="#0d182c" stroke="#1f2937" stroke-width="1.6"/>
      <rect x="22" y="70" width="256" height="30" rx="10" fill="#111e34" stroke="#1f2937" stroke-width="1.2"/>
      <rect x="22" y="112" width="256" height="30" rx="10" fill="#111e34" stroke="#1f2937" stroke-width="1.2"/>
      <circle cx="38" cy="85" r="8" fill="#22c55e"/>
      <circle cx="38" cy="127" r="8" fill="#38bdf8"/>
      <text x="58" y="90" font-family="Poppins, 'Segoe UI', sans-serif" font-size="14" fill="#cbd5e1">Redaktions-Tasks</text>
      <text x="58" y="132" font-family="Poppins, 'Segoe UI', sans-serif" font-size="14" fill="#cbd5e1">Bugfixes notieren</text>
      <rect x="22" y="26" width="68" height="8" rx="4" fill="#22c55e" opacity="0.7"/>
      <rect x="100" y="26" width="46" height="8" rx="4" fill="#38bdf8" opacity="0.6"/>
    </g>
  </g>
</svg>
